<mxfile host="Electron" modified="2023-10-25T18:22:20.699Z" agent="Mozilla/5.0 (X11; Linux x86_64) AppleWebKit/537.36 (KHTML, like Gecko) draw.io/22.0.3 Chrome/114.0.5735.289 Electron/25.8.4 Safari/537.36" etag="r708qlgpGFhfpUmHzAjb" version="22.0.3" type="device">
  <diagram id="C5RBs43oDa-KdzZeNtuy" name="Page-1">
    <mxGraphModel dx="3434" dy="1544" grid="1" gridSize="10" guides="1" tooltips="1" connect="1" arrows="1" fold="1" page="1" pageScale="1" pageWidth="827" pageHeight="1169" math="0" shadow="0">
      <root>
        <mxCell id="WIyWlLk6GJQsqaUBKTNV-0" />
        <mxCell id="WIyWlLk6GJQsqaUBKTNV-1" parent="WIyWlLk6GJQsqaUBKTNV-0" />
        <mxCell id="9u-voaj74ql-5Wb2GAgk-6" value="" style="edgeStyle=orthogonalEdgeStyle;rounded=0;orthogonalLoop=1;jettySize=auto;html=1;" parent="WIyWlLk6GJQsqaUBKTNV-1" source="9u-voaj74ql-5Wb2GAgk-2" target="9u-voaj74ql-5Wb2GAgk-5" edge="1">
          <mxGeometry relative="1" as="geometry" />
        </mxCell>
        <mxCell id="9u-voaj74ql-5Wb2GAgk-2" value="data from tail -f" style="rounded=1;whiteSpace=wrap;html=1;arcSize=6;" parent="WIyWlLk6GJQsqaUBKTNV-1" vertex="1">
          <mxGeometry x="-710" y="140" width="120" height="430" as="geometry" />
        </mxCell>
        <mxCell id="9u-voaj74ql-5Wb2GAgk-8" value="" style="edgeStyle=orthogonalEdgeStyle;rounded=0;orthogonalLoop=1;jettySize=auto;html=1;entryX=0;entryY=0.5;entryDx=0;entryDy=0;" parent="WIyWlLk6GJQsqaUBKTNV-1" source="9u-voaj74ql-5Wb2GAgk-5" target="9u-voaj74ql-5Wb2GAgk-11" edge="1">
          <mxGeometry relative="1" as="geometry">
            <mxPoint x="-110" y="355" as="targetPoint" />
          </mxGeometry>
        </mxCell>
        <mxCell id="9u-voaj74ql-5Wb2GAgk-5" value="Process data" style="whiteSpace=wrap;html=1;rounded=1;arcSize=6;" parent="WIyWlLk6GJQsqaUBKTNV-1" vertex="1">
          <mxGeometry x="-413" y="210" width="120" height="290" as="geometry" />
        </mxCell>
        <mxCell id="9u-voaj74ql-5Wb2GAgk-9" value="central server" style="ellipse;whiteSpace=wrap;html=1;rounded=1;arcSize=6;" parent="WIyWlLk6GJQsqaUBKTNV-1" vertex="1">
          <mxGeometry x="540" y="255" width="190" height="185" as="geometry" />
        </mxCell>
        <mxCell id="9u-voaj74ql-5Wb2GAgk-15" value="yes" style="edgeStyle=orthogonalEdgeStyle;rounded=0;orthogonalLoop=1;jettySize=auto;html=1;" parent="WIyWlLk6GJQsqaUBKTNV-1" source="9u-voaj74ql-5Wb2GAgk-11" target="9u-voaj74ql-5Wb2GAgk-14" edge="1">
          <mxGeometry relative="1" as="geometry" />
        </mxCell>
        <mxCell id="9u-voaj74ql-5Wb2GAgk-17" value="" style="edgeStyle=orthogonalEdgeStyle;rounded=0;orthogonalLoop=1;jettySize=auto;html=1;entryX=0;entryY=0.5;entryDx=0;entryDy=0;" parent="WIyWlLk6GJQsqaUBKTNV-1" source="9u-voaj74ql-5Wb2GAgk-11" target="9u-voaj74ql-5Wb2GAgk-16" edge="1">
          <mxGeometry relative="1" as="geometry">
            <mxPoint x="-50" y="660" as="targetPoint" />
          </mxGeometry>
        </mxCell>
        <mxCell id="9u-voaj74ql-5Wb2GAgk-18" value="No" style="edgeLabel;html=1;align=center;verticalAlign=middle;resizable=0;points=[];" parent="9u-voaj74ql-5Wb2GAgk-17" vertex="1" connectable="0">
          <mxGeometry x="0.0667" relative="1" as="geometry">
            <mxPoint as="offset" />
          </mxGeometry>
        </mxCell>
        <mxCell id="9u-voaj74ql-5Wb2GAgk-11" value="server connection?" style="rhombus;whiteSpace=wrap;html=1;rounded=1;arcSize=6;" parent="WIyWlLk6GJQsqaUBKTNV-1" vertex="1">
          <mxGeometry x="-150" y="270" width="200" height="170" as="geometry" />
        </mxCell>
        <mxCell id="9u-voaj74ql-5Wb2GAgk-14" value="send to server" style="whiteSpace=wrap;html=1;rounded=1;arcSize=6;" parent="WIyWlLk6GJQsqaUBKTNV-1" vertex="1">
          <mxGeometry x="250" y="325" width="120" height="60" as="geometry" />
        </mxCell>
        <mxCell id="9u-voaj74ql-5Wb2GAgk-22" style="edgeStyle=orthogonalEdgeStyle;rounded=0;orthogonalLoop=1;jettySize=auto;html=1;entryX=0.5;entryY=0;entryDx=0;entryDy=0;" parent="WIyWlLk6GJQsqaUBKTNV-1" source="9u-voaj74ql-5Wb2GAgk-16" target="9u-voaj74ql-5Wb2GAgk-11" edge="1">
          <mxGeometry relative="1" as="geometry">
            <Array as="points">
              <mxPoint x="70" y="160" />
              <mxPoint x="-50" y="160" />
            </Array>
          </mxGeometry>
        </mxCell>
        <mxCell id="9u-voaj74ql-5Wb2GAgk-16" value="store logs in temp cache until&lt;br&gt;there is a server connection" style="whiteSpace=wrap;html=1;rounded=1;arcSize=6;" parent="WIyWlLk6GJQsqaUBKTNV-1" vertex="1">
          <mxGeometry x="10" y="525" width="120" height="60" as="geometry" />
        </mxCell>
        <mxCell id="AJ2TWtQ2be7vS0rb0tGj-0" style="edgeStyle=orthogonalEdgeStyle;rounded=0;orthogonalLoop=1;jettySize=auto;html=1;entryX=-0.011;entryY=0.541;entryDx=0;entryDy=0;entryPerimeter=0;" edge="1" parent="WIyWlLk6GJQsqaUBKTNV-1" source="9u-voaj74ql-5Wb2GAgk-14" target="9u-voaj74ql-5Wb2GAgk-9">
          <mxGeometry relative="1" as="geometry" />
        </mxCell>
      </root>
    </mxGraphModel>
  </diagram>
</mxfile>
